<svg width="207" height="135" viewBox="0 0 207 135" fill="none" xmlns="http://www.w3.org/2000/svg">
<path d="M43.5 4.00002C46.2001 2.80002 51.2001 1.50002 54.5 1.10002C57.8 0.700023 63.9 0.500023 68 0.800023C72.1 1.00002 80 2.10002 85.5 3.20002C92.1 4.40002 101.9 7.60002 114 12.5C124.2 16.5 135.5 20.7 139.3 21.7C143 22.7 146 23.8 146 24.3C146 24.7 143.9 25.1 141.3 25.3C138 25.4 134.9 24.8 131.5 23.3C128.8 22 125.2 21 123.5 21C121.5 21 119.6 21.9 118 23.6C115.9 25.8 115.5 27.1 115.5 32.5C115.5 37.4 116 39.5 119.7 44.5L116.1 52C113.2 58.2 112.6 60.5 112.7 65.5C112.8 68.8 112.9 73.4 112.9 75.8C113 78.1 113.5 80.9 114 82C114.8 83.6 114.7 84 113.3 84C112.3 84 106.3 85.8 100 88.1C93.7 90.3 85.2001 93.3 81.3 94.6C74.7001 96.8 74.1001 96.8 74.6001 95.3C75.0001 94.3 76.2001 91.3 77.3 88.5C79 84.5 79.4 81.3 79.4 72.5C79.5 62.5 79.2001 61 76.8 55.8C75.2001 52.6 72.1001 48.1 69.8 45.7C67.4 43.4 63.5 40.4 61 39.2C58.5 38 54.3 36.9 51.6 36.8C48.3334 36.6 46.6 36.9334 46.4 37.8C46.1 38.5 47.3 39.3 49.3 39.6C51 40 54.6 41.3 57.3 42.6C59.9 43.9 63.7001 46.7 65.7001 48.7C67.7001 50.8 70.5 55 71.8 58C73.2001 61 74.5 66 74.8 69C75 72 74.7001 76.9 74.1001 79.7C73.5001 82.6 71.8 87.9 67.5 98H58.8C53.1 98 47.9001 97.4 44.2001 96.2C41.1001 95.2 36.1 92.9 33.1 91C30.1 89.1 26.2001 85.7 24.5 83.5C22.7001 81.3 20.3 77.6 19.1 75.3C18 72.9 16.6 71 16 71C15.4 71 14.7 71.6 14.4 72.2C14.1 72.9 14.6 75.7 15.7 78.5C16.8 81.5 19.7001 85.8 23 89.3C26.5 93 30.7001 96.3 34.5 98.1C37.8 99.7 43.9001 101.7 48 102.6C53.3 103.7 57.7001 104 63 103.5C67.1001 103.1 73.7 102 77.5 101C81.3 100 90.6 96.8 98 93.7C105.4 90.7 114 87.7 117 86.9C120 86.2 125.7 85.7 129.5 85.7C133.3 85.8 138.5 86.6 141 87.5C143.5 88.4 147.4 90.6 149.8 92.3C152.6 94.4334 154.333 95.1667 155 94.5C155.7 93.8 155.3 92.5 151.5 87.6L157 88.3C160 88.6 164.1 89.6 166 90.4C167.9 91.2 170.8 92.9 172.4 94.2C174 95.4 176.2 98.3 177.2 100.5C178.1 102.7 179 105.7 179 107.2C179 108.8 178.3 111.3 177.5 113C176.7 114.7 174.5 116.8 172.7 117.7C170.3 119.1 166.9 119.5 158.5 119.5C152.4 119.6 146.9 119.7 146.2 119.8C145.6 119.9 145 120.8 145 121.7C145.1 122.7 144.2 124.6 143.2 126C142.1 127.4 139.5 129.1 137.4 129.7C135.3 130.4 130.8 131 127.5 131C124.2 131 118.7 130.3 109 128L106 131C104.2 132.8 101.9 134 100.2 134.1C98.7001 134.2 96.4 134.1 95 134C93.6 133.9 91.0001 133 89.2001 131.9C86.0001 130 86.0001 130 82.7001 132C81.0001 133.1 78.3 134 76.7001 134C75.2001 134 72.9 133.6 71.5 133C70.1 132.4 66.7001 130 64 127.5C61.2001 125 58.9001 123 58.7001 123C58.6001 122.9 54 122.6 48.5 122.1C40.4 121.5 37.2001 120.7 31.7 118.2C27.8 116.3 23 113 20.2 110.2C17.5 107.4 13.6 101.7 10.9 96.5C8.30005 91.5 5.00005 84.3 3.50005 80.5C1.30005 74.8 0.800049 71.9 0.800049 65C0.800049 60.3 1.50005 53.5 2.40005 49.7C3.30005 46 5.30005 40.3 7.00005 37C8.60005 33.7 13.1 27.7 16.9 23.7C20.6 19.8 27 14.2 31.1 11.3C35.2 8.50002 40.7001 5.20002 43.5 4.00002Z" fill="#CAC8BB" fill-opacity="0.99"/>
<path d="M119.9 31C119.7 28.8 120.2 26.9 121 26.2C121.8 25.5 122.9 25.1 123.5 25.3C124 25.5 127 26.5 130 27.5C134.8 29 137 29.1 147.5 28.2C154.1 27.7 161.8 27.6 164.5 28C167.3 28.4 173.3 29.3 178 30C186.5 31.3 186.5 31.3 191 28.7C193.5 27.2 196.5 26 197.8 26C199.6 26 200 26.5 200 29.3C200 31 199.3 34.5 196.8 41.5L201 52.5C203.3 58.5 205.5 65.3 206 67.5C206.4 69.9 206.3 72.9 205.6 75C204.7 77.8 203.9 78.6 201.5 78.8C198.7 79.1 198.6 79.3 199.3 82.1C199.7 83.7 199.7 85.7 199.3 86.6C198.8 87.6 196.4 89.4 193.8 90.6C191.1 91.9 188.3 94.1 187.5 95.5C186.5 97.2 185.1 98 183.3 98C181.4 98 179.9 97.1 178.7 95.2C177.7 93.7 175.2 91.4 173.2 90C171.2 88.6 167 86.9 164 86.2C161 85.5 156.7 85.2 154.5 85.5C151.8 85.9 148.2 85.4 143.5 84C139.4 82.8 133.6 81.9 129.5 81.8C125.7 81.8 121.5 81.4 120.3 80.9C118.7 80.3 118 79.2 118 77.3C118.1 75.7 118.8 74 119.8 73.3C121.2 72.3 121.3 71.8 120.2 70.3L120.2 70.2999C119.6 69.2999 118.7 67.8 118.3 67C118 66.2 119 60.8 120.7 55C123.6 44.5 123.6 44.5 121.9 39.5C120.9 36.8 120 32.9 119.9 31Z" fill="#CAC8BB" fill-opacity="0.99"/>
<path d="M182.5 114V107C182.5 103 182.9 100 183.5 100C184.1 100 186.3 101.1 188.5 102.3C190.8 103.6 192.9 105.7 193.5 107.4C194.4 109.8 194.2 110.5 192 112.1C190.6 113.3 188 114.1 182.5 114Z" fill="#CAC8BB" fill-opacity="0.99"/>
<path d="M136.8 60.9C136.7 60 137 59 137.5 58.7C137.9 58.3 139.3 59.2 140.6 60.5C142.3 62.3 143.6 62.8 145.2 62.4C146.5 62 148.3 61 149.2 60.1C150.9 58.6 151 58.6 151.6 60.5C152.1 61.9 151.6 63 149.9 64.3C148.6 65.3 145.9 66.1 144 66C142.1 66 139.7 65.2 138.7 64.2C137.7 63.3 136.9 61.8 136.8 60.9Z" fill="black"/>
<path d="M175.7 65.1C174.2 63.9 173 62.3 173 61.5C173 60.7 173.2 60 173.5 60C173.79 60 175.198 60.7455 176.824 61.6068L177 61.7C179.9 63.4 180.1 63.4 183 61.7C185.3 60.4 186.2 60.3 186.6 61.2C187 61.9 186.4 63.3 185.4 64.2C184.3 65.1 182.4 66.2 181 66.5C179.3 66.9 177.6 66.5 175.7 65.1Z" fill="black"/>
<path d="M162 65.6C162.8 65.4 164.2 64.9 165 64.7C165.8 64.4 166.8 64.1 167.2 64.1C167.7 64 168.3 64.7 168.7 65.6C169.233 66.6667 168.9 67.5 167.7 68.1C166.8 68.6 166 69.9 166 71C166 72.1 166.2 73.7 166.5 74.5C166.8 75.3 167.9 76 169 76C170.2 76 171.4 75 172 73.5C172.6 72.1 173.4 71.2 174 71.5C174.6 71.8 175 72.8 175 73.7C175 74.7 174.2 76.3 173.2 77.3C172.3 78.3 170.4 79.1 169 79C167.6 79 166.1 78.6 165.5 78C164.833 77.3333 163.467 77.4333 161.4 78.3C158.7 79.3 157.9 79.2 155.6 77.7C153.9 76.6 153.1 75.2 153.2 73.8C153.4 72.6 154.1 71.5 154.8 71.2C155.6 70.9 155.9 71.1 155.6 71.6C155.3 72.1 155.6 73.3 156.3 74.4C157.1 75.7 158.2 76 159.7 75.6C161 75.3 162.5 73.8 163 72.2C163.8 70 163.7 69.2 162.3 67.8C160.8 66.3 160.7 66 162 65.6Z" fill="black"/>
</svg>
