<svg width="222" height="71" viewBox="0 0 222 71" fill="none" xmlns="http://www.w3.org/2000/svg">
<path d="M0.75 47.3636H12.3864V59H0.75V47.3636ZM0.75 35.7273H12.3864V47.3636H0.75V35.7273ZM0.75 24.0909H12.3864V35.7273H0.75V24.0909ZM0.75 12.4545H12.3864V24.0909H0.75V12.4545ZM12.3864 12.4545H24.0227V24.0909H12.3864V12.4545ZM24.0227 24.0909H35.6591V35.7273H24.0227V24.0909ZM24.0227 35.7273H35.6591V47.3636H24.0227V35.7273ZM24.0227 47.3636H35.6591V59H24.0227V47.3636ZM58.8864 12.4545H70.5227V24.0909H58.8864V12.4545ZM70.5227 24.0909H82.1591V35.7273H70.5227V24.0909ZM47.25 24.0909H58.8864V35.7273H47.25V24.0909ZM70.5227 35.7273H82.1591V47.3636H70.5227V35.7273ZM58.8864 35.7273H70.5227V47.3636H58.8864V35.7273ZM47.25 35.7273H58.8864V47.3636H47.25V35.7273ZM47.25 47.3636H58.8864V59H47.25V47.3636ZM58.8864 59H70.5227V70.6364H58.8864V59ZM93.75 0.81818H105.386V12.4545H93.75V0.81818ZM105.386 0.81818H117.023V12.4545H105.386V0.81818ZM117.023 0.81818H128.659V12.4545H117.023V0.81818ZM105.386 12.4545H117.023V24.0909H105.386V12.4545ZM105.386 24.0909H117.023V35.7273H105.386V24.0909ZM105.386 35.7273H117.023V47.3636H105.386V35.7273ZM105.386 47.3636H117.023V59H105.386V47.3636ZM140.25 0.81818H151.886V12.4545H140.25V0.81818ZM151.886 0.81818H163.523V12.4545H151.886V0.81818ZM163.523 0.81818H175.159V12.4545H163.523V0.81818ZM163.523 12.4545H175.159V24.0909H163.523V12.4545ZM163.523 24.0909H175.159V35.7273H163.523V24.0909ZM163.523 35.7273H175.159V47.3636H163.523V35.7273ZM163.523 47.3636H175.159V59H163.523V47.3636ZM151.886 47.3636H163.523V59H151.886V47.3636ZM140.25 47.3636H151.886V59H140.25V47.3636ZM140.25 35.7273H151.886V47.3636H140.25V35.7273ZM140.25 24.0909H151.886V35.7273H140.25V24.0909ZM140.25 12.4545H151.886V24.0909H140.25V12.4545ZM186.75 0.81818H198.386V12.4545H186.75V0.81818ZM198.386 0.81818H210.023V12.4545H198.386V0.81818ZM210.023 0.81818H221.659V12.4545H210.023V0.81818ZM198.386 12.4545H210.023V24.0909H198.386V12.4545ZM198.386 24.0909H210.023V35.7273H198.386V24.0909ZM198.386 35.7273H210.023V47.3636H198.386V35.7273ZM198.386 47.3636H210.023V59H198.386V47.3636Z" fill="black"/>
</svg>
